<svg width="58" height="58" viewBox="0 0 58 58" fill="none" xmlns="http://www.w3.org/2000/svg">
<g clip-path="url(#clip0_161_27)">
<path d="M29 0C13.0088 0 0 13.0088 0 29C0 44.9912 13.0088 58 29 58C44.9912 58 58 44.9912 58 29C58 13.0088 44.9912 0 29 0ZM42.792 44C42.3207 44.4713 41.7021 44.7085 41.0835 44.7085C40.4649 44.7085 39.8458 44.4713 39.375 44L27.2915 31.917C26.837 31.4652 26.5835 30.851 26.5835 30.2085V14.5C26.5835 13.1636 27.6658 12.0835 29 12.0835C30.3342 12.0835 31.4165 13.1636 31.4165 14.5V29.208L42.792 40.583C43.7367 41.5282 43.7367 43.0553 42.792 44Z" fill="white"/>
</g>
<defs>
<clipPath id="clip0_161_27">
<rect width="58" height="58" fill="white"/>
</clipPath>
</defs>
</svg>
