<svg width="63" height="63" viewBox="0 0 63 63" fill="none" xmlns="http://www.w3.org/2000/svg">
<path d="M62.9996 4.73585C62.9956 3.18695 61.288 2.23954 59.9715 3.06047C45.0177 12.3865 29.2971 26.8734 22.0603 27.0649C15.962 21.5908 11.0633 19.541 7.09729 20.799C3.67362 21.885 1.30144 25.3801 0.0467283 31.1871C-0.304884 32.8148 1.39538 34.1251 2.87955 33.3707C6.08614 31.7408 8.40374 31.6886 10.614 33.1996C14.874 36.6032 14.2366 47.5212 19.8569 50.4403C23.54 52.3533 28.0944 52.5025 33.4252 50.8904C34.2867 55.2847 38.6238 58.583 42.4021 60.9782C42.886 61.2851 43.4941 61.3747 44.0654 61.192C53.0362 58.3233 60.1785 50.7884 55.8824 42.7122C55.4467 41.8929 54.5007 41.486 53.6057 41.7337C50.0273 42.7245 46.2448 42.4315 42.0485 40.8377L40.2543 39.6556C58.5301 37.8909 63.0452 23.173 62.9996 4.73585Z" fill="white"/>
<path d="M23.2164 22.8269C26.8178 21.6538 32.3156 17.7774 35.4416 15.5413C34.4203 10.3205 31.727 5.90459 27.9349 2.26544C26.8424 1.21667 25.0208 1.73648 24.6455 3.20308L20.2117 20.5244C21.1919 21.2055 22.1931 21.9726 23.2164 22.8269Z" fill="white"/>
</svg>
