<svg width="58" height="58" viewBox="0 0 58 58" fill="none" xmlns="http://www.w3.org/2000/svg">
<g clip-path="url(#clip0_161_29)">
<path d="M57.9167 22.3457C57.7169 21.7305 57.1853 21.2821 56.5452 21.1892L38.565 18.5764L30.5237 2.28357C30.2376 1.70357 29.6468 1.33643 29.0001 1.33643C28.3533 1.33643 27.7626 1.70357 27.4764 2.28357L19.4348 18.5764L1.45485 21.1892C0.814927 21.2821 0.283074 21.7305 0.0832464 22.3456C-0.116694 22.9608 0.0500551 23.6361 0.51326 24.0875L13.5233 36.7698L10.4525 54.6775C10.3431 55.3151 10.6052 55.9592 11.1285 56.3395C11.4245 56.5545 11.7751 56.6639 12.1274 56.6639C12.3979 56.6639 12.6693 56.5994 12.9178 56.4687L29 48.0137L45.0814 56.4686C45.6541 56.7696 46.3477 56.7195 46.8709 56.3394C47.3942 55.9592 47.6564 55.3148 47.5471 54.6773L44.4753 36.7698L57.4868 24.0874C57.9499 23.6361 58.1168 22.9608 57.9167 22.3457Z" fill="white"/>
</g>
<defs>
<clipPath id="clip0_161_29">
<rect width="58" height="58" fill="white"/>
</clipPath>
</defs>
</svg>
