<svg width="59" height="59" viewBox="0 0 59 59" fill="none" xmlns="http://www.w3.org/2000/svg">
<path d="M6.90005 40.037C5.68169 40.037 4.77696 41.1589 5.03029 42.3531C6.05564 47.2265 10.2656 51.2073 15.8387 52.8358V55.9239C15.8387 57.6248 17.2139 59 18.9148 59H40.1577C41.8585 59 43.2337 57.6248 43.2337 55.9239V52.8117C48.7706 51.1711 52.9444 47.2024 53.9698 42.3531C54.2231 41.1589 53.3184 40.037 52.1 40.037H43.2337V36.02C48.7706 34.3795 52.9444 30.4108 53.9698 25.5614C54.2231 24.3672 53.3184 23.2453 52.1 23.2453H43.2337V19.2284C48.7706 17.5878 52.9444 13.6191 53.9698 8.76978C54.2231 7.57555 53.3184 6.45369 52.1 6.45369H43.2337V3.07606C43.2337 1.37518 41.8585 0 40.1577 0H18.9027C17.2018 0 15.8266 1.37518 15.8266 3.07606V6.42956H6.90005C5.68169 6.42956 4.77696 7.55142 5.03029 8.74566C6.05564 13.6191 10.2656 17.5999 15.8387 19.2284V23.2333H6.90005C5.68169 23.2333 4.77696 24.3551 5.03029 25.5494C6.05564 30.4228 10.2656 34.4036 15.8387 36.0321V40.037H6.90005ZM29.5302 7.2981C32.8113 7.2981 35.4652 9.95195 35.4652 13.2331C35.4652 16.5142 32.8113 19.1681 29.5302 19.1681C26.2491 19.1681 23.5952 16.5142 23.5952 13.2331C23.5952 9.95195 26.2491 7.2981 29.5302 7.2981ZM29.5302 24.1018C32.8113 24.1018 35.4652 26.7557 35.4652 30.0368C35.4652 33.3179 32.8113 35.9718 29.5302 35.9718C26.2491 35.9718 23.5952 33.3179 23.5952 30.0368C23.5952 26.7557 26.2491 24.1018 29.5302 24.1018ZM29.5302 40.9055C32.8113 40.9055 35.4652 43.5594 35.4652 46.8405C35.4652 50.1217 32.8113 52.7755 29.5302 52.7755C26.2491 52.7755 23.5952 50.1217 23.5952 46.8405C23.5952 43.5594 26.2491 40.9055 29.5302 40.9055Z" fill="white"/>
</svg>
