<svg width="96" height="96" viewBox="0 0 96 96" fill="none" xmlns="http://www.w3.org/2000/svg">
<g clip-path="url(#clip0_328_413)">
<path d="M94.591 10.5205H49.409V8.92365C49.409 8.14551 48.7781 7.51465 48 7.51465C47.2219 7.51465 46.591 8.14551 46.591 8.92365V10.5205H1.409C0.630857 10.5205 0 11.1514 0 11.9295C0 12.7077 0.630857 13.3385 1.409 13.3385H46.591V18.267C44.8457 18.8566 43.5851 20.5083 43.5851 22.4501V27.0613C38.0004 27.1913 33.0973 30.3123 30.5167 34.9626C30.2766 35.1826 30.1134 35.4841 30.0709 35.8239C29.3651 37.3111 28.8881 38.9337 28.6899 40.6506L26.5702 59.0217C26.369 60.7657 26.6777 62.5178 27.4628 64.0881L28.1515 65.4654C28.6294 66.4213 29.2576 67.2644 29.9995 67.9729C28.1716 68.6212 26.7331 70.1463 26.2411 72.1148L22.8529 85.6675H20.9472C20.169 85.6675 19.5382 86.2983 19.5382 87.0765C19.5382 87.8546 20.169 88.4855 20.9472 88.4855H26.9589C27.737 88.4855 28.3679 87.8546 28.3679 87.0765C28.3679 86.2983 27.737 85.6675 26.9589 85.6675H25.7577L28.9749 72.7982C29.3206 71.4157 30.5571 70.4503 31.9823 70.4503H64.0177C65.4427 70.4503 66.6794 71.4157 67.0251 72.7982L70.2423 85.6675H69.0411C68.2629 85.6675 67.6321 86.2983 67.6321 87.0765C67.6321 87.8546 68.2629 88.4855 69.0411 88.4855H72.0415C72.043 88.4855 72.0443 88.4859 72.0458 88.4859C72.0479 88.4859 72.0498 88.4855 72.0518 88.4855H75.0528C75.831 88.4855 76.4618 87.8546 76.4618 87.0765C76.4618 86.2983 75.831 85.6675 75.0528 85.6675H73.1471L69.7589 72.1148C69.2669 70.1463 67.8284 68.6212 66.0005 67.9729C66.7423 67.2644 67.3706 66.4215 67.8485 65.4656L68.5374 64.0881C69.3225 62.5178 69.6312 60.7657 69.43 59.0217L67.3103 40.6508C67.1121 38.9339 66.6351 37.3113 65.9293 35.8241C65.8868 35.4843 65.7234 35.1828 65.4835 34.9628C62.9029 30.3127 57.9998 27.1915 52.4151 27.0615V22.4503C52.4151 20.5085 51.1545 18.8567 49.4092 18.2672V13.3385H94.5912C95.3693 13.3385 96.0002 12.7077 96.0002 11.9295C96.0002 11.1514 95.3691 10.5205 94.591 10.5205ZM65.9629 62.9354L65.3281 64.205C64.2711 66.3189 62.1464 67.6321 59.783 67.6321H36.217C33.8536 67.6321 31.7288 66.3189 30.6719 64.205L30.0371 62.9354H65.9629ZM66.668 60.1275C66.6144 60.1213 66.5601 60.1174 66.5049 60.1174H49.409V41.9882C49.409 41.2101 48.7781 40.5792 48 40.5792C47.2219 40.5792 46.591 41.2101 46.591 41.9882V60.1174H29.332C29.3296 59.8604 29.3399 59.6024 29.3696 59.3445L31.4893 40.9736C31.6345 39.7149 31.9654 38.5193 32.448 37.409H63.552C64.0346 38.5193 64.3655 39.7149 64.5107 40.9736L66.6304 59.3445C66.6604 59.6058 66.671 59.8672 66.668 60.1275ZM61.8557 34.591H34.1442C36.4537 31.6989 40.0051 29.8708 43.9468 29.8708H52.053C55.9949 29.8708 59.5463 31.6989 61.8557 34.591ZM49.5969 27.0528H46.4031V22.4501C46.4031 21.5695 47.1195 20.8532 48 20.8532C48.8805 20.8532 49.5969 21.5695 49.5969 22.4501V27.0528Z" fill="white"/>
</g>
<defs>
<clipPath id="clip0_328_413">
<rect width="96" height="96" fill="white"/>
</clipPath>
</defs>
</svg>
