<svg width="73" height="73" viewBox="0 0 73 73" fill="none" xmlns="http://www.w3.org/2000/svg">
<g clip-path="url(#clip0_257_0)">
<path d="M36.5 73C16.3728 73 0 56.6256 0 36.5C0 16.3744 16.3728 0 36.5 0C56.6272 0 73 16.3744 73 36.5C73 56.6256 56.6272 73 36.5 73ZM36.5 2.97956C18.0176 2.97956 2.97956 18.0159 2.97956 36.5C2.97956 54.9841 18.0176 70.0204 36.5 70.0204C54.9824 70.0204 70.0204 54.9841 70.0204 36.5C70.0204 18.0159 54.9824 2.97956 36.5 2.97956Z" fill="white"/>
<path d="M57.6162 35.0103H37.9897V15.3838C37.9897 14.5616 37.3238 13.894 36.4999 13.894C35.676 13.894 35.0101 14.5616 35.0101 15.3838V35.0103H15.3836C14.5613 35.0103 13.8938 35.6779 13.8938 36.5001C13.8938 37.3224 14.5613 37.9899 15.3836 37.9899H35.0101V57.615C35.0101 58.4373 35.676 59.1048 36.4999 59.1048C37.3238 59.1048 37.9897 58.4373 37.9897 57.615V37.9899H57.6162C58.4384 37.9899 59.1059 37.3224 59.1059 36.5001C59.1059 35.6779 58.4387 35.0103 57.6162 35.0103Z" fill="white"/>
</g>
<defs>
<clipPath id="clip0_257_0">
<rect width="73" height="73" fill="white"/>
</clipPath>
</defs>
</svg>
