<svg width="73" height="73" viewBox="0 0 73 73" fill="none" xmlns="http://www.w3.org/2000/svg">
<path d="M59.7525 51.8457C60.4655 49.5258 60.8334 47.158 60.8334 44.7799C60.8334 42.1511 60.4116 39.552 59.5798 37.0555L56.152 26.772C54.9965 23.3085 52.2251 20.7155 48.7349 19.8362C47.4752 19.5197 45.8734 19.1853 44.1041 18.8994V15.2084H45.625C47.3033 15.2084 48.6666 13.8435 48.6666 12.1668V6.08338C48.6666 2.72823 45.937 0 42.5834 0H30.4168C27.0632 0 24.3334 2.72823 24.3334 6.08338V12.1668C24.3334 13.8435 25.6969 15.2084 27.375 15.2084H28.8959V18.8994C27.1266 19.1853 25.5246 19.5197 24.2651 19.8362C20.7749 20.7155 18.0035 23.3085 16.848 26.772L13.4202 37.0555C12.5885 39.552 12.1666 42.1512 12.1666 44.7799C12.1666 47.1581 12.5346 49.5258 13.2476 51.8457C10.8933 52.3765 9.125 54.4764 9.125 56.9882C9.125 59.415 9.58838 65.3304 10.6637 68.0083L11.3321 69.6806C12.137 71.6975 14.0618 73 16.2331 73H56.9896C59.0005 73 60.8096 71.8832 61.7125 70.0816C63.2394 67.0221 63.875 60.6225 63.875 57.8763V56.9882C63.875 54.4764 62.1069 52.3766 59.7525 51.8457ZM27.375 12.1668V6.08338C27.375 4.40666 28.7385 3.04176 30.4166 3.04176H42.5832C44.2615 3.04176 45.6249 4.40666 45.6249 6.08338V12.1668H27.375ZM41.0625 15.2084V18.5086C39.6029 18.3609 38.0913 18.25 36.5 18.25C34.9087 18.25 33.3971 18.3608 31.9375 18.5086V15.2084H41.0625ZM16.3074 38.0179L19.7352 27.7344C20.5581 25.2586 22.5303 23.4096 25.0076 22.7858C27.7166 22.1042 31.9138 21.2918 36.5 21.2918C41.0862 21.2918 45.2834 22.1042 47.9924 22.7858C50.4697 23.4096 52.4419 25.2587 53.2648 27.7344L56.6926 38.0179C57.4233 40.204 57.7916 42.4794 57.7916 44.7799C57.7916 47.293 57.3074 49.797 56.3909 52.2388C55.3282 52.7304 54.4206 53.5298 53.8707 54.6268L52.4716 57.4235C52.0299 57.2743 51.4533 57.0951 50.8207 56.9072L52.8162 52.9798C54.0816 50.446 54.75 47.6108 54.75 44.7801C54.75 42.8062 54.4322 40.8548 53.8084 38.9789L50.3806 28.6984C49.8934 27.234 48.6963 26.0994 47.2498 25.7355C44.7042 25.0953 40.7714 24.3335 36.5 24.3335C32.2315 24.3335 28.2958 25.0955 25.7472 25.7355C24.3036 26.0994 23.1065 27.2326 22.6193 28.6926L19.1914 38.979C18.5677 40.8548 18.2499 42.8064 18.2499 44.7802C18.2499 47.611 18.9183 50.4477 20.1925 52.9963L22.1792 56.9072C21.5464 57.0951 20.9698 57.2745 20.5283 57.4236L19.1291 54.6255C18.5792 53.5292 17.6716 52.7302 16.6088 52.2388C15.6923 49.7967 15.2082 47.293 15.2082 44.7801C15.2084 42.4794 15.5767 40.204 16.3074 38.0179ZM50.1014 51.6119L47.8147 56.1135C44.7731 55.4027 40.8233 54.75 36.5 54.75C32.1767 54.75 28.2269 55.4027 25.1854 56.1135L22.9075 51.6283C21.85 49.5088 21.2916 47.1415 21.2916 44.7801C21.2916 43.1344 21.556 41.5068 22.0788 39.9413L25.5067 29.6534C25.6641 29.1766 26.0503 28.7949 26.4899 28.685C28.8721 28.0879 32.5405 27.375 36.5 27.375C40.4625 27.375 44.1279 28.0879 46.5073 28.685C46.9468 28.7964 47.3359 29.1766 47.4935 29.6578L50.9213 39.9413C51.4442 41.5066 51.7085 43.1344 51.7085 44.7801C51.7084 47.1413 51.1499 49.5073 50.1014 51.6119ZM60.8334 57.8763C60.8334 60.8645 60.1323 66.437 58.9917 68.7197C58.6084 69.483 57.8421 69.9584 56.9896 69.9584H16.2331C15.3123 69.9584 14.4953 69.4059 14.1539 68.5518L13.4855 66.878C12.6805 64.8685 12.1666 59.6778 12.1666 56.988C12.1666 55.7539 13.1707 54.7499 14.4062 54.7499C15.2587 54.7499 16.0251 55.2251 16.4083 55.987L18.4104 59.9926C18.7639 60.6995 19.6075 61.0203 20.3352 60.7247C20.4095 60.6951 27.7701 57.7915 36.5 57.7915C45.2033 57.7915 52.5905 60.6951 52.6648 60.7247C53.3895 61.0113 54.2361 60.7009 54.5896 59.9926L56.5917 55.9886C56.9749 55.2252 57.7413 54.7499 58.5938 54.7499C59.8295 54.7499 60.8334 55.7539 60.8334 56.988V57.8763Z" fill="white"/>
<path d="M53.1491 63.3998C52.8847 62.6008 52.0144 62.1685 51.2331 62.4314C51.1886 62.4449 46.6856 63.8751 36.5001 63.8751C26.3146 63.8751 21.8115 62.4449 21.7671 62.4314C20.9829 62.1685 20.1126 62.6008 19.8511 63.3998C19.5868 64.1959 20.0145 65.0529 20.8105 65.3172C21.0065 65.3825 25.7324 66.9168 36.5001 66.9168C47.2677 66.9168 51.9936 65.3827 52.1896 65.3172C52.9857 65.0529 53.4134 64.1959 53.1491 63.3998Z" fill="white"/>
</svg>
