<svg width="80" height="80" viewBox="0 0 80 80" fill="none" xmlns="http://www.w3.org/2000/svg">
<g clip-path="url(#clip0_328_415)">
<path d="M9.03234 67.0967C6.8984 67.0967 5.16138 68.8337 5.16138 70.9677C5.16138 73.1016 6.8984 74.8386 9.03234 74.8386C11.1663 74.8386 12.9033 73.1016 12.9033 70.9677C12.9033 68.8337 11.1663 67.0967 9.03234 67.0967ZM9.03234 72.258C8.32166 72.258 7.74202 71.6796 7.74202 70.9677C7.74202 70.2557 8.32166 69.6773 9.03234 69.6773C9.74303 69.6773 10.3227 70.2557 10.3227 70.9677C10.3227 71.6796 9.74303 72.258 9.03234 72.258Z" fill="white"/>
<path d="M80 9.50164C80 4.26348 75.7378 0 70.4984 0C67.9599 0 65.574 0.988533 63.7796 2.78352L59.1835 7.37777C58.1779 6.78994 57.0413 6.45161 55.8449 6.45161C53.5597 6.45161 51.463 7.60396 50.235 9.53188L42.2259 22.1163L44.6258 24.5161L41.2903 27.8528L40.4234 26.9859C39.6629 26.2248 38.6517 25.8064 37.5756 25.8064C35.3547 25.8064 33.5484 27.6128 33.5484 29.8337C33.5484 30.894 33.9781 31.9317 34.7278 32.6814L35.5948 33.5484L32.2581 36.8851L31.3911 36.0181C30.6307 35.2571 29.6195 34.8387 28.5433 34.8387C26.3225 34.8387 24.5161 36.645 24.5161 38.8659C24.5161 39.9263 24.9458 40.964 25.6956 41.7137L26.5625 42.5806L23.2258 45.9173L22.3589 45.0504C21.5984 44.2893 20.5872 43.871 19.5111 43.871C17.2902 43.871 15.4839 45.6773 15.4839 47.8982C15.4839 48.9585 15.9136 49.9962 16.6633 50.746L17.5302 51.6129L14.1935 54.9496L13.3266 54.0827C12.5662 53.3216 11.5549 52.9032 10.4788 52.9032C8.25794 52.9032 6.45161 54.7095 6.45161 56.9304C6.45161 57.9908 6.8813 59.0285 7.63105 59.7782L8.49798 60.6452L2.24798 66.8939C0.798891 68.3443 0 70.2722 0 72.3223C0 76.5562 3.4438 80 7.67767 80C9.72782 80 11.6557 79.2011 13.1061 77.7508L19.3548 71.502L20.2218 72.3689C20.9822 73.13 21.9934 73.5484 23.0696 73.5484C25.2904 73.5484 27.0968 71.7421 27.0968 69.5212C27.0968 68.4608 26.6671 67.4231 25.9173 66.6734L25.0504 65.8064L28.3871 62.4698L29.254 63.3367C30.0145 64.0978 31.0257 64.5161 32.1018 64.5161C34.3227 64.5161 36.129 62.7098 36.129 60.4889C36.129 59.4286 35.6993 58.3909 34.9496 57.6411L34.0827 56.7742L37.4194 53.4375L38.2863 54.3044C39.0467 55.0655 40.058 55.4839 41.1341 55.4839C43.355 55.4839 45.1613 53.6775 45.1613 51.4567C45.1613 50.3963 44.7316 49.3586 43.9819 48.6089L43.1149 47.7419L46.4516 44.4052L47.3185 45.2722C48.079 46.0333 49.0902 46.4516 50.1663 46.4516C52.3872 46.4516 54.1935 44.6453 54.1935 42.4244C54.1935 41.364 53.7639 40.3264 53.0141 39.5766L52.1472 38.7097L55.4839 35.373L57.8837 37.7728L70.4681 29.7637C72.3973 28.5383 73.5484 26.4415 73.5484 24.1564C73.5484 22.9599 73.2101 21.8233 72.6203 20.8165L77.2165 16.2216C79.0115 14.4273 80 12.0401 80 9.50164ZM11.2802 75.9262C10.3188 76.8889 9.03856 77.4193 7.67767 77.4193C4.86706 77.4193 2.58065 75.1329 2.58065 72.3223C2.58065 70.9614 3.11114 69.6812 4.07384 68.7185L10.3226 62.4698L17.5302 69.6774L11.2802 75.9262ZM23.0696 70.9677C22.6827 70.9677 22.3198 70.8178 22.0464 70.5443L9.45564 57.9536C9.18725 57.684 9.03226 57.311 9.03226 56.9304C9.03226 56.1328 9.6812 55.4839 10.4788 55.4839C10.8657 55.4839 11.2286 55.6338 11.502 55.9073L24.0927 68.498C24.3611 68.7676 24.5161 69.1406 24.5161 69.5212C24.5161 70.3188 23.8672 70.9677 23.0696 70.9677ZM23.2258 63.9819L16.0181 56.7742L19.3548 53.4375L26.5625 60.6452L23.2258 63.9819ZM32.1018 61.9355C31.715 61.9355 31.3521 61.7855 31.0786 61.5121L18.4879 48.9214C18.2195 48.6517 18.0645 48.2787 18.0645 47.8982C18.0645 47.1006 18.7135 46.4516 19.5111 46.4516C19.8979 46.4516 20.2608 46.6016 20.5343 46.875L33.125 59.4657C33.3934 59.7354 33.5484 60.1084 33.5484 60.4889C33.5484 61.2865 32.8994 61.9355 32.1018 61.9355ZM32.2581 54.9496L25.0504 47.7419L28.3871 44.4052L35.5948 51.6129L32.2581 54.9496ZM41.1341 52.9032C40.7472 52.9032 40.3843 52.7533 40.1109 52.4798L27.5202 39.8891C27.2518 39.6195 27.0968 39.2465 27.0968 38.8659C27.0968 38.0683 27.7457 37.4194 28.5433 37.4194C28.9302 37.4194 29.2931 37.5693 29.5665 37.8427L42.1573 50.4335C42.4257 50.7031 42.5806 51.0761 42.5806 51.4567C42.5806 52.2543 41.9317 52.9032 41.1341 52.9032ZM41.2903 45.9173L34.0827 38.7097L37.4194 35.373L44.627 42.5806L41.2903 45.9173ZM50.1663 43.871C49.7795 43.871 49.4166 43.721 49.1431 43.4476L36.5524 30.8569C36.284 30.5872 36.129 30.2142 36.129 29.8337C36.129 29.036 36.778 28.3871 37.5756 28.3871C37.9624 28.3871 38.3254 28.537 38.5988 28.8105L51.1895 41.4012C51.4579 41.6709 51.6129 42.0438 51.6129 42.4244C51.6129 43.222 50.964 43.871 50.1663 43.871ZM50.3226 36.8851L43.1149 29.6774L46.4516 26.3407L53.6593 33.5484L50.3226 36.8851ZM45.5147 21.7547L51.1215 12.9461L67.0539 28.8785L58.2453 34.4853L45.5147 21.7547ZM69.2635 27.4389L52.5611 10.7365C53.3266 9.6749 54.5262 9.03226 55.8449 9.03226C56.9317 9.03226 57.9536 9.45564 58.721 10.2243L69.7757 21.2777C70.5443 22.0464 70.9677 23.0683 70.9677 24.1564C70.9677 25.475 70.3251 26.6746 69.2635 27.4389ZM70.9677 18.8206L61.1794 9.03226L65.6036 4.60748C66.9109 3.30078 68.6505 2.58065 70.4984 2.58065C74.3151 2.58065 77.4193 5.68485 77.4193 9.50164C77.4193 11.3508 76.6992 13.0891 75.3925 14.3964L70.9677 18.8206Z" fill="white"/>
<path d="M70.9677 5.16113C68.8337 5.16113 67.0967 6.89815 67.0967 9.0321C67.0967 11.166 68.8337 12.9031 70.9677 12.9031C73.1016 12.9031 74.8386 11.166 74.8386 9.0321C74.8386 6.89815 73.1016 5.16113 70.9677 5.16113ZM70.9677 10.3224C70.257 10.3224 69.6773 9.74405 69.6773 9.0321C69.6773 8.32016 70.257 7.74178 70.9677 7.74178C71.6783 7.74178 72.258 8.32016 72.258 9.0321C72.258 9.74405 71.6783 10.3224 70.9677 10.3224Z" fill="white"/>
</g>
<defs>
<clipPath id="clip0_328_415">
<rect width="80" height="80" fill="white"/>
</clipPath>
</defs>
</svg>
