<svg width="80" height="80" viewBox="0 0 80 80" fill="none" xmlns="http://www.w3.org/2000/svg">
<g clip-path="url(#clip0_328_258)">
<path d="M0.253399 7.3387L5.58876 16.675C5.76873 16.9905 6.06995 17.2188 6.42221 17.3071L11.3998 18.5515L28.472 35.6237L30.3584 33.7379L13.019 16.399C12.8483 16.2279 12.6344 16.1066 12.4001 16.0479L7.61723 14.8479L3.07471 6.89427L6.96924 2.99974L14.9262 7.54665L16.1267 12.3295C16.1849 12.5643 16.3067 12.7789 16.4773 12.9495L33.8167 30.2889L35.7025 28.4025L18.6303 11.3303L17.3859 6.35547C17.2976 6.00267 17.0693 5.70089 16.7538 5.52038L7.41696 0.185564C6.89626 -0.110723 6.24114 -0.0229339 5.81646 0.400098L0.48165 5.73546C0.0525826 6.15739 -0.0406929 6.81361 0.253399 7.3387Z" fill="white"/>
<path d="M55.7053 26.2867L26.3624 55.6301L24.4761 53.7437L53.8195 24.4009L55.7053 26.2867Z" fill="white"/>
<path d="M21.2265 56.6684C20.9851 56.2667 20.5516 56.0215 20.083 56.0215H12.0806C11.6125 56.0215 11.1785 56.2667 10.9377 56.6684L6.93613 63.337C6.6821 63.7595 6.6821 64.2879 6.93613 64.7109L10.9377 71.3796C11.1785 71.7807 11.6125 72.0265 12.0806 72.0265H20.083C20.5516 72.0265 20.9851 71.7807 21.2265 71.3796L25.2275 64.7109C25.4815 64.2879 25.4815 63.7595 25.2275 63.337L21.2265 56.6684ZM19.3286 69.3588H12.8355L9.63454 64.024L12.8355 58.6886H19.3286L22.5296 64.024L19.3286 69.3588Z" fill="white"/>
<path d="M64.0977 32.0132C72.9068 32.0429 80.0725 24.9254 80.1022 16.1163C80.1066 14.7754 79.9419 13.4399 79.6122 12.14C79.4344 11.4251 78.7107 10.99 77.9958 11.1678C77.7609 11.2265 77.547 11.3478 77.3758 11.5184L69.0732 19.8155L62.4857 17.6203L60.2888 11.0345L68.5914 2.7302C69.1121 2.20895 69.1116 1.36454 68.5903 0.843838C68.4186 0.672102 68.2024 0.550295 67.9659 0.492135C59.423 -1.67131 50.7445 3.49999 48.5811 12.0424C48.2524 13.3384 48.0883 14.6706 48.0927 16.0077C48.096 17.0579 48.2041 18.1047 48.417 19.133L19.2069 48.3425C18.1787 48.1301 17.1318 48.022 16.0822 48.0182C7.24242 48.0182 0.0766602 55.184 0.0766602 64.0237C0.0766602 72.863 7.24242 80.0287 16.0822 80.0287C24.9214 80.0287 32.0872 72.863 32.0872 64.0237C32.0839 62.9736 31.9753 61.9267 31.7629 60.8984L38.7558 53.9055L41.8142 56.9639C42.3354 57.4846 43.1793 57.4846 43.7006 56.9639L44.3672 56.2967C44.9521 55.7156 45.8975 55.7156 46.4824 56.2967C47.0667 56.8794 47.0678 57.8253 46.4851 58.4096C46.4846 58.4102 46.4835 58.4113 46.4824 58.4124L45.8157 59.079C45.295 59.5997 45.295 60.4441 45.8157 60.9648L61.7263 76.8754C65.9111 81.0986 72.7268 81.1294 76.95 76.9446C81.1726 72.7598 81.2034 65.9436 77.0186 61.7209C76.9961 61.6979 76.973 61.6748 76.95 61.6518L61.0394 45.7417C60.5187 45.221 59.6743 45.221 59.1536 45.7417L58.4869 46.4084C57.9015 46.99 56.9567 46.99 56.3712 46.4084C55.7874 45.8257 55.7858 44.8798 56.3685 44.296C56.3696 44.2949 56.3707 44.2943 56.3712 44.2932L57.0384 43.626C57.5591 43.1053 57.5591 42.2609 57.0384 41.7402L53.9801 38.6819L60.973 31.689C62.0012 31.9013 63.0481 32.0099 64.0977 32.0132ZM69.3382 77.3616C68.3692 77.3599 67.4085 77.1849 66.5015 76.8442L76.9182 66.4269C78.4901 70.6084 76.375 75.2722 72.1935 76.8442C71.281 77.1871 70.3137 77.3627 69.3382 77.3616ZM54.2281 42.6966C52.751 44.4584 52.9826 47.0843 54.7444 48.5608C56.2928 49.8585 58.5495 49.8574 60.0962 48.557L75.0642 63.5381C75.2266 63.7011 75.3786 63.8728 75.5256 64.0473L64.1219 75.4511C63.9468 75.3046 63.7751 75.1526 63.6121 74.9896L48.6326 60.009C50.1097 58.2472 49.8781 55.6213 48.1163 54.1448C46.568 52.8466 44.3107 52.8482 42.764 54.148L40.6301 52.0142L52.0937 40.5677L54.2281 42.6966ZM59.6139 29.2819L29.357 59.5328C29.025 59.8642 28.8917 60.3454 29.0047 60.8002C30.8346 67.9863 26.4923 75.2952 19.3057 77.1245C12.1196 78.9544 4.81067 74.6121 2.98082 67.4255C1.15152 60.2395 5.49378 52.9305 12.6804 51.1007C14.8543 50.5476 17.1318 50.5476 19.3057 51.1007C19.7605 51.2121 20.2406 51.0787 20.5731 50.749L50.823 20.4975C51.1544 20.1661 51.2877 19.6849 51.1736 19.2306C49.3563 12.1285 53.6404 4.89803 60.7425 3.08026C62.0846 2.73733 63.4728 2.60565 64.8554 2.69179L57.8197 9.73025C57.4625 10.0869 57.3374 10.6153 57.4971 11.0943L60.1642 19.0973C60.2976 19.4951 60.6103 19.8078 61.0087 19.9401L69.0117 22.6078C69.4902 22.7674 70.0185 22.6429 70.3757 22.2862L77.4114 15.2505C77.4274 15.5051 77.4356 15.7569 77.4356 16.0077C77.4729 23.3364 71.5625 29.3077 64.2338 29.3455C63.1008 29.351 61.9716 29.2117 60.8742 28.9307C60.4194 28.8172 59.9382 28.9499 59.6068 29.2813H59.6139V29.2819Z" fill="white"/>
<path d="M69.0437 67.0815L67.1574 68.9678L53.8201 55.6305L55.7059 53.7441L69.0437 67.0815Z" fill="white"/>
</g>
<defs>
<clipPath id="clip0_328_258">
<rect width="80" height="80" fill="white"/>
</clipPath>
</defs>
</svg>
