<svg width="83" height="83" viewBox="0 0 83 83" fill="none" xmlns="http://www.w3.org/2000/svg">
<g clip-path="url(#clip0_256_765)">
<path d="M51.5688 61.0414C53.9952 61.0414 56.4217 60.1178 58.269 58.2705C61.9634 54.5761 61.9634 48.5649 58.269 44.8705C54.5745 41.176 48.5632 41.176 44.8687 44.8705C41.1743 48.5649 41.1743 54.5761 44.8687 58.2705C46.7159 60.1177 49.1423 61.0414 51.5688 61.0414ZM46.5874 46.589C47.9609 45.2155 49.7645 44.5289 51.5688 44.5289C53.3727 44.5289 55.1771 45.2158 56.5501 46.589C59.2969 49.3358 59.2969 53.8052 56.5501 56.5518C53.8035 59.2988 49.334 59.2986 46.5874 56.5518C43.8404 53.8052 43.8404 49.3358 46.5874 46.589Z" fill="white"/>
<path d="M40.5388 40.541C36.0176 45.0625 34.7103 51.7869 37.2087 57.6721C37.4709 58.2899 38.1848 58.5779 38.8021 58.3159C39.42 58.0535 39.7082 57.3403 39.4459 56.7224C37.3367 51.7538 38.4405 46.0768 42.2577 42.2596C47.392 37.1253 55.7465 37.1255 60.8805 42.2596C66.0148 47.394 66.0148 55.7481 60.8805 60.8825C58.4138 63.3489 55.1348 64.7186 51.647 64.7392C51.6204 64.7394 51.5943 64.7393 51.5678 64.7393C48.1124 64.7393 44.851 63.4131 42.3771 61.0003C41.8965 60.5315 41.1271 60.5412 40.6587 61.0217C40.1901 61.5021 40.1997 62.2716 40.6803 62.7402C43.6111 65.5989 47.4742 67.1699 51.5673 67.1697C51.5986 67.1697 51.63 67.1697 51.6613 67.1694C55.7928 67.1452 59.6774 65.5226 62.5993 62.6008C68.6811 56.5189 68.6811 46.6229 62.5993 40.5408C56.5168 34.459 46.6211 34.459 40.5388 40.541Z" fill="white"/>
<path d="M80.6718 46.1144H76.3476C75.7054 43.1842 74.5629 40.4235 72.9509 37.9058L76.0058 34.8506C76.4456 34.411 76.6877 33.8266 76.6877 33.2049C76.6877 32.5831 76.4456 31.9987 76.006 31.5593L71.5809 27.1343C71.1413 26.6947 70.557 26.4524 69.9353 26.4524C69.3135 26.4524 68.7292 26.6945 68.2895 27.1341L65.2343 30.1894C62.7168 28.5772 59.9563 27.4349 57.0259 26.7926V22.4684C57.0259 21.1852 55.9819 20.1411 54.6986 20.1411H48.4407C47.7177 20.1411 47.0707 20.4726 46.6436 20.9914H45.8495C45.3318 18.7257 44.4463 16.5859 43.2143 14.6232L45.5517 12.2859C46.3758 11.4616 46.3758 10.1206 45.5517 9.29618L41.9753 5.71978C41.5758 5.32053 41.045 5.10065 40.4803 5.10065C39.9157 5.10065 39.3847 5.32053 38.9856 5.71994L36.6481 8.05711C34.6859 6.82533 32.5459 5.93982 30.2798 5.42196V2.11405C30.28 0.948382 29.3318 0 28.166 0H23.1082C21.9426 0 20.9942 0.948382 20.9942 2.11405V5.42213C18.7283 5.93998 16.5882 6.82566 14.626 8.05727L12.289 5.7201C11.8897 5.32069 11.3589 5.10081 10.794 5.10081C10.2292 5.10081 9.6982 5.32069 9.29895 5.7201L5.72287 9.29634C4.89877 10.1206 4.89877 11.4616 5.72287 12.286L8.0602 14.6234C6.82843 16.5856 5.94291 18.7257 5.42505 20.9916H2.11698C0.951311 20.9916 0.00292969 21.94 0.00292969 23.1056V28.1634C0.00292969 29.329 0.951311 30.2774 2.11698 30.2774H5.42505C5.94291 32.5434 6.82843 34.6836 8.0602 36.6456L5.72287 38.983C4.89861 39.8072 4.89861 41.1484 5.72287 41.9727L9.29911 45.5491C10.1234 46.3732 11.4644 46.3735 12.289 45.5491L14.6263 43.2117C16.5883 44.4435 18.7282 45.329 20.9944 45.8469V46.6421C20.4734 47.0693 20.1403 47.7172 20.1403 48.442V54.7001C20.1403 55.9834 21.1843 57.0273 22.4676 57.0273H26.7918C27.4341 59.9577 28.5766 62.7186 30.1885 65.236L27.1335 68.2911C26.6937 68.7307 26.4516 69.3151 26.4516 69.9369C26.4516 70.5586 26.6937 71.1431 27.1333 71.5825L31.5585 76.0075C31.9981 76.4471 32.5823 76.6893 33.2041 76.6893C33.8258 76.6893 34.4101 76.4472 34.8498 76.0076L37.9048 72.9523C40.4225 74.5646 43.1834 75.707 46.1134 76.349V80.6732C46.1134 81.9565 47.1574 83.0005 48.4407 83.0005H54.6986C55.9819 83.0005 57.0259 81.9565 57.0259 80.6732V76.3485C59.9563 75.7064 62.717 74.5639 65.2345 72.9518L68.2896 76.0071C68.7292 76.4466 69.3135 76.6888 69.9353 76.6888C70.557 76.6888 71.1413 76.4467 71.5809 76.0071L76.0058 71.5822C76.4456 71.1426 76.6877 70.5581 76.6877 69.9364C76.6877 69.3147 76.4456 68.7302 76.006 68.2908L72.9509 65.2355C74.5628 62.7183 75.7053 59.9572 76.3476 57.0269H80.6718C81.9551 57.0269 82.999 55.9829 82.999 54.6996V48.4415C82.9992 47.1584 81.9551 46.1144 80.6718 46.1144ZM21.7525 43.5253C19.5999 43.0602 17.574 42.222 15.7307 41.0335C14.8974 40.4967 13.7861 40.614 13.0876 41.3127L10.794 43.6064L7.66517 40.4776L9.95891 38.1837C10.6574 37.485 10.7747 36.3736 10.2379 35.5406C9.04942 33.6974 8.21106 31.6714 7.74602 29.5186C7.53651 28.5498 6.66753 27.8466 5.67961 27.8466H2.43343V23.4219H5.67977C6.66753 23.4219 7.53667 22.7187 7.74634 21.7494C8.21122 19.597 9.04958 17.5711 10.2381 15.7278C10.7749 14.8951 10.6576 13.7835 9.95907 13.0848L7.66533 10.7911L10.7942 7.66224L13.0878 9.95598C13.7863 10.6547 14.8974 10.772 15.731 10.235C17.5743 9.04649 19.6002 8.20813 21.7525 7.74325C22.7215 7.53391 23.4249 6.66476 23.4249 5.67668V2.4305H27.8497V5.67684C27.8497 6.66492 28.5531 7.53407 29.522 7.74342C31.6743 8.20829 33.7002 9.04665 35.5437 10.235C36.3765 10.7718 37.4881 10.6548 38.1869 9.95598L40.4805 7.66224L43.6094 10.7911L41.3158 13.0847C40.6169 13.7834 40.4996 14.8949 41.0366 15.7278C42.2253 17.5714 43.0636 19.5975 43.5283 21.7494C43.7377 22.7185 44.6067 23.4219 45.5949 23.4219H46.1136V26.7926C43.1834 27.4347 40.4227 28.5772 37.9051 30.1894L34.8498 27.1341C34.8135 27.0978 34.775 27.0651 34.7367 27.0316C35.163 24.2321 34.3018 21.2727 32.1505 19.1214C29.6055 16.5762 25.7815 15.7459 22.4088 17.0059C21.7801 17.2408 21.4607 17.941 21.6958 18.5697C21.9306 19.1984 22.6307 19.5176 23.2594 19.2828C25.7424 18.3548 28.5581 18.966 30.432 20.8399C32.0045 22.4125 32.6381 24.5711 32.3398 26.619C32.0509 26.7345 31.7853 26.9076 31.5586 27.1341L27.1336 31.5591C26.9065 31.7861 26.7333 32.0523 26.6177 32.3417C26.2958 32.3885 25.9688 32.4148 25.6374 32.4148C23.8262 32.4148 22.1236 31.7095 20.843 30.4289C18.7029 28.2888 18.2416 24.9535 19.7211 22.318C20.0495 21.7327 19.8415 20.9919 19.2562 20.6635C18.6713 20.335 17.9303 20.5431 17.6017 21.1284C15.5914 24.7096 16.2175 29.2409 19.1242 32.1476C20.9198 33.9433 23.2787 34.8411 25.6373 34.8411C26.1023 34.8411 26.5669 34.8043 27.0275 34.7341C27.062 34.7735 27.0959 34.8134 27.1333 34.8506L30.1885 37.9059C28.5766 40.4233 27.4339 43.1843 26.7918 46.1146H23.4249V45.592C23.4249 44.6039 22.7216 43.7348 21.7525 43.5253ZM80.5687 54.5964H76.2636C75.1759 54.5964 74.2193 55.3709 73.9885 56.4382C73.4059 59.1354 72.3554 61.6743 70.8661 63.9841C70.2747 64.9012 70.4037 66.1252 71.1727 66.8942L74.2146 69.9362L69.9354 74.2154L66.8936 71.1732C66.1247 70.4043 64.9007 70.2752 63.9836 70.8665C61.6735 72.3559 59.1346 73.4063 56.4374 73.989C55.3702 74.2196 54.5957 75.1764 54.5957 76.2641V80.5692H48.5441V76.2641C48.5441 75.1766 47.7696 74.2197 46.7023 73.989C44.0052 73.4065 41.4665 72.3559 39.1562 70.8665C38.2394 70.2754 37.0154 70.4042 36.2461 71.1732L33.2044 74.2152L28.9252 69.9361L31.9669 66.8941C32.7363 66.1249 32.8653 64.901 32.2738 63.9839C30.7846 61.674 29.734 59.1352 29.1513 56.4379C28.9205 55.3707 27.9639 54.596 26.8762 54.596H22.5711V48.5444H26.8762C27.9639 48.5444 28.9205 47.7699 29.1513 46.7026C29.734 44.0054 30.7844 41.4665 32.2737 39.1567C32.8653 38.2394 32.7363 37.0156 31.9671 36.2466L28.9252 33.2045L33.2044 28.9254L36.2461 31.9674C37.0151 32.7364 38.2389 32.8654 39.1562 32.2743C41.4665 30.7849 44.0054 29.7343 46.7023 29.1518C47.7696 28.9212 48.5441 27.9644 48.5441 26.8766V22.5714H54.5957V26.8765C54.5957 27.9642 55.3702 28.921 56.4374 29.1516C59.1346 29.7341 61.6733 30.7847 63.9836 32.2741C64.9006 32.8652 66.1244 32.7366 66.8937 31.9673L69.9354 28.9252L74.2146 33.2044L71.1727 36.2469C70.4034 37.0161 70.2744 38.2399 70.8658 39.1568C72.3551 41.4668 73.4057 44.0057 73.9884 46.7031C74.2191 47.7702 75.1757 48.5449 76.2635 48.5449H80.5685V54.5964H80.5687Z" fill="white"/>
</g>
<defs>
<clipPath id="clip0_256_765">
<rect width="83" height="83" fill="white"/>
</clipPath>
</defs>
</svg>
