<svg width="71" height="41" viewBox="0 0 71 41" fill="none" xmlns="http://www.w3.org/2000/svg">
<g clip-path="url(#clip0_347_189)">
<path d="M30.941 0C25.1575 0 20.4663 4.74102 20.4663 10.5601C20.4663 15.0693 26.7672 23.3574 30.481 27.542C30.596 27.6695 30.757 27.7506 30.9295 27.7506C31.1019 27.7506 31.2629 27.6695 31.3894 27.542C35.1032 23.3574 41.4041 15.0693 41.4041 10.5601C41.4041 4.74102 36.7129 0 30.941 0ZM31.7228 25.27L30.9295 26.2205L30.1361 25.27C28.7219 23.5776 21.6736 14.9302 21.6736 10.5485C21.6736 5.40175 25.8244 1.21713 30.9295 1.21713C36.0346 1.21713 40.1853 5.40175 40.1853 10.5485C40.1853 14.9302 33.1371 23.5892 31.7228 25.27Z" fill="#525252"/>
<path d="M30.9408 6.63037C28.7907 6.63037 27.043 8.39232 27.043 10.56C27.043 12.7276 28.7907 14.4896 30.9408 14.4896C33.0909 14.4896 34.8386 12.7276 34.8386 10.56C34.8386 8.39232 33.0794 6.63037 30.9408 6.63037ZM30.9408 13.2608C29.469 13.2608 28.2618 12.0437 28.2618 10.56C28.2618 9.07623 29.469 7.8591 30.9408 7.8591C32.4125 7.8591 33.6198 9.07623 33.6198 10.56C33.6198 12.0437 32.4125 13.2608 30.9408 13.2608Z" fill="#525252"/>
<path d="M60.5252 0C54.7532 0 50.0505 4.74102 50.0505 10.5601C50.0505 15.0693 56.3514 23.3574 60.0653 27.542C60.1803 27.6695 60.3412 27.7506 60.5137 27.7506C60.6862 27.7506 60.8471 27.6695 60.9736 27.542C64.6875 23.3574 70.9884 15.0693 70.9884 10.5601C70.9999 4.74102 66.2972 0 60.5252 0ZM61.3186 25.27L60.5252 26.2205L59.7318 25.27C58.3176 23.5776 51.2693 14.9302 51.2693 10.5485C51.2693 5.40175 55.4201 1.21713 60.5252 1.21713C65.6303 1.21713 69.7811 5.40175 69.7811 10.5485C69.7811 14.9302 62.7328 23.5892 61.3186 25.27Z" fill="#525252"/>
<path d="M60.5252 6.63037C58.3751 6.63037 56.6274 8.39232 56.6274 10.56C56.6274 12.7276 58.3751 14.4896 60.5252 14.4896C62.6754 14.4896 64.423 12.7276 64.423 10.56C64.423 8.39232 62.6754 6.63037 60.5252 6.63037ZM60.5252 13.2608C59.0535 13.2608 57.8462 12.0437 57.8462 10.56C57.8462 9.07623 59.0535 7.8591 60.5252 7.8591C61.997 7.8591 63.2043 9.07623 63.2043 10.56C63.2043 12.0437 62.0085 13.2608 60.5252 13.2608Z" fill="#525252"/>
<path d="M60.5251 33.1406C58.8924 33.1406 57.4206 34.1955 56.8687 35.7604L56.6273 36.4559H34.8386L34.5971 35.7604C34.0452 34.1955 32.5735 33.1406 30.9408 33.1406C28.7907 33.1406 27.043 34.9026 27.043 37.0702C27.043 39.2379 28.7907 40.9998 30.9408 40.9998C32.5735 40.9998 34.0452 39.945 34.5971 38.3801L34.8386 37.6846H56.6273L56.8687 38.3801C57.4206 39.945 58.8924 40.9998 60.5251 40.9998C62.6752 40.9998 64.4229 39.2379 64.4229 37.0702C64.4229 34.9026 62.6752 33.1406 60.5251 33.1406ZM30.9408 39.7711C29.469 39.7711 28.2618 38.554 28.2618 37.0702C28.2618 35.5865 29.469 34.3694 30.9408 34.3694C32.4125 34.3694 33.6198 35.5865 33.6198 37.0702C33.6198 38.554 32.4125 39.7711 30.9408 39.7711ZM60.5251 39.7711C59.0533 39.7711 57.846 38.554 57.846 37.0702C57.846 35.5865 59.0533 34.3694 60.5251 34.3694C61.9968 34.3694 63.2041 35.5865 63.2041 37.0702C63.2041 38.554 62.0083 39.7711 60.5251 39.7711Z" fill="#525252"/>
<path d="M39.7483 28.2489C41.7423 28.2489 43.3587 26.6193 43.3587 24.6091C43.3587 22.5988 41.7423 20.9692 39.7483 20.9692C37.7544 20.9692 36.1379 22.5988 36.1379 24.6091C36.1379 26.6193 37.7544 28.2489 39.7483 28.2489Z" fill="white"/>
<path d="M0.90834 33.7199C1.40275 33.7199 1.81668 33.3142 1.81668 32.8042C1.81668 31.4364 7.04826 24.6088 14.4645 24.6088C14.9589 24.6088 15.3728 24.2031 15.3728 23.6931C15.3728 23.1946 14.9704 22.7773 14.4645 22.7773C6.41587 22.7889 0 29.9874 0 32.8042C0 33.3142 0.402429 33.7199 0.90834 33.7199Z" fill="white"/>
<path d="M0.90834 31.9005H9.06041C10.2677 31.9005 11.314 31.1122 11.6589 29.9531L13.6481 23.2994L15.4533 19.6596C15.6028 19.3466 15.9132 19.1611 16.2581 19.1611H18.9717C19.2131 19.1611 19.4431 19.2539 19.6155 19.4277L22.9615 22.8009H37.0465C37.5409 22.8009 37.9548 23.2067 37.9548 23.7167V25.5366C37.9548 25.9771 37.6329 26.3596 37.196 26.4292C33.8845 26.9856 28.2505 28.3534 26.9513 29.698L26.8938 29.814C25.1921 33.1872 23.0649 37.3718 18.9717 37.3718H6.32389C2.72502 37.3718 0 35.4128 0 32.8162C0 32.3062 0.402429 31.9005 0.90834 31.9005Z" fill="white"/>
<path d="M40.6566 21.9083L39.8518 21.9431L39.6333 22.3952C39.4723 22.7081 39.1504 22.8936 38.8285 22.8936C38.6905 22.8936 38.5525 22.8588 38.426 22.8009C37.9776 22.5806 37.7936 22.0242 38.0236 21.5837L39.8288 17.9439C40.0472 17.515 40.5532 17.3296 41.0016 17.515L42.8298 18.3149C43.2552 18.5003 43.4736 18.9872 43.3357 19.4393L42.4273 22.1749C42.2664 22.6502 41.7489 22.9052 41.289 22.7545C40.9096 22.6154 40.6796 22.2793 40.6566 21.9083Z" fill="white"/>
<path d="M38.4376 26.5218C38.886 26.3016 39.4264 26.4754 39.6449 26.9275L39.7599 27.1478C39.8403 26.7305 40.2083 26.4175 40.6452 26.4175C41.1396 26.4175 41.5536 26.8232 41.5536 27.3332V29.1531C41.5536 29.6516 41.1511 30.0689 40.6452 30.0689H39.7369C39.3919 30.0689 39.0815 29.8718 38.932 29.5704L38.0237 27.7505C37.8167 27.2985 38.0007 26.7536 38.4376 26.5218Z" fill="white"/>
<path d="M17.1664 16.4137C17.6608 16.4137 18.0747 16.008 18.0747 15.498V14.5823C18.0747 14.0838 17.6723 13.6665 17.1664 13.6665C16.672 13.6665 16.2581 14.0722 16.2581 14.5823V15.498C16.2581 16.008 16.6605 16.4137 17.1664 16.4137Z" fill="white"/>
<path d="M0.90834 17.3178H17.1665C17.6609 17.3178 18.0748 16.9121 18.0748 16.4021C18.0748 15.9036 17.6724 15.4863 17.1665 15.4863H0.90834C0.413927 15.4863 0 15.892 0 16.4021C0 16.9121 0.402429 17.3178 0.90834 17.3178Z" fill="white"/>
<path d="M17.1664 17.3178H33.4245C33.9189 17.3178 34.3329 16.9121 34.3329 16.4021C34.3329 15.9036 33.9304 15.4863 33.4245 15.4863H17.1664C16.672 15.4863 16.2581 15.892 16.2581 16.4021C16.2581 16.9121 16.6605 17.3178 17.1664 17.3178Z" fill="white"/>
<path d="M13.556 40.9996C14.0505 40.9996 14.4644 40.5939 14.4644 40.0839V36.4441C14.4644 35.9456 14.062 35.5283 13.556 35.5283C13.0616 35.5283 12.6477 35.934 12.6477 36.4441V40.0839C12.6477 40.5939 13.0501 40.9996 13.556 40.9996Z" fill="white"/>
<path d="M6.32387 40.9996C6.81828 40.9996 7.23221 40.5939 7.23221 40.0839V36.4441C7.23221 35.9456 6.82978 35.5283 6.32387 35.5283C5.81796 35.5283 5.41553 35.934 5.41553 36.4441V40.0839C5.41553 40.5939 5.82945 40.9996 6.32387 40.9996Z" fill="white"/>
<path d="M22.5819 41.0002C23.0763 41.0002 23.4902 40.5944 23.4902 40.0844C23.4902 39.586 23.0878 39.1687 22.5819 39.1687H4.51858C3.8632 39.0643 2.127 38.5891 1.69008 37.8124C1.44862 37.3719 0.896721 37.2212 0.459798 37.4647C0.0228753 37.7081 -0.126598 38.2645 0.114859 38.705C1.09219 40.4669 4.05867 40.9306 4.39211 40.9886L22.5819 41.0002Z" fill="white"/>
</g>
<defs>
<clipPath id="clip0_347_189">
<rect width="71" height="41" fill="white"/>
</clipPath>
</defs>
</svg>
