<svg width="28" height="22" viewBox="0 0 28 22" fill="none" xmlns="http://www.w3.org/2000/svg">
<path d="M25.1732 6.42665L23.5332 8.89332C24.3241 10.4708 24.7113 12.2198 24.6601 13.9836C24.6089 15.7475 24.1209 17.4711 23.2398 19H4.75982C3.61471 17.0135 3.14022 14.7108 3.40668 12.4334C3.67314 10.156 4.66637 8.02509 6.23913 6.35656C7.81189 4.68803 9.88044 3.57071 12.1381 3.17025C14.3958 2.76979 16.7225 3.1075 18.7732 4.13332L21.2398 2.49332C18.7285 0.882944 15.7496 0.161329 12.7797 0.443904C9.80976 0.726479 7.02042 1.99692 4.85781 4.052C2.69521 6.10709 1.28431 8.82808 0.850779 11.7797C0.417254 14.7314 0.986157 17.7432 2.46649 20.3333C2.69917 20.7364 3.03327 21.0715 3.4356 21.3054C3.83792 21.5393 4.29445 21.6638 4.75982 21.6667H23.2265C23.6964 21.6685 24.1584 21.5462 24.5658 21.312C24.9732 21.0779 25.3115 20.7403 25.5465 20.3333C26.775 18.2052 27.3915 15.779 27.328 13.3226C27.2645 10.8662 26.5233 8.47508 25.1865 6.41332L25.1732 6.42665ZM12.1198 15.5467C12.3675 15.7946 12.6616 15.9913 12.9853 16.1255C13.309 16.2597 13.656 16.3288 14.0065 16.3288C14.3569 16.3288 14.7039 16.2597 15.0277 16.1255C15.3514 15.9913 15.6455 15.7946 15.8932 15.5467L23.4398 4.22666L12.1198 11.7733C11.8719 12.021 11.6752 12.3151 11.541 12.6388C11.4068 12.9625 11.3377 13.3095 11.3377 13.66C11.3377 14.0104 11.4068 14.3574 11.541 14.6812C11.6752 15.0049 11.8719 15.299 12.1198 15.5467Z" fill="#919191"/>
</svg>
