<svg width="34" height="35" viewBox="0 0 34 35" fill="none" xmlns="http://www.w3.org/2000/svg">
<path d="M12.9428 3.82892e-08C15.4187 -5.32543e-05 17.8427 0.710142 19.9272 2.04632C22.0117 3.38251 23.6691 5.28859 24.7028 7.53843C25.7366 9.78826 26.1033 12.2874 25.7593 14.7394C25.4154 17.1913 24.3754 19.4932 22.7626 21.3718L34 32.6093L32.5923 34.0169L21.3529 22.7775C19.7678 24.133 17.8785 25.0854 15.846 25.5534C13.8136 26.0215 11.6981 25.9914 9.67971 25.4657C7.66136 24.94 5.79998 23.9342 4.25408 22.5341C2.70818 21.134 1.52357 19.381 0.801143 17.4245C0.0787156 15.4679 -0.160128 13.3657 0.104955 11.2969C0.370038 9.22814 1.13119 7.25408 2.3236 5.54286C3.516 3.83165 5.10432 2.43397 6.95328 1.46887C8.80224 0.503769 10.8571 -0.000160382 12.9428 3.82892e-08ZM12.9428 1.99104C10.0384 1.99104 7.25309 3.14477 5.19943 5.19843C3.14577 7.25209 1.99204 10.0374 1.99204 12.9418C1.99204 15.8461 3.14577 18.6314 5.19943 20.6851C7.25309 22.7387 10.0384 23.8925 12.9428 23.8925C15.8471 23.8925 18.6324 22.7387 20.6861 20.6851C22.7397 18.6314 23.8935 15.8461 23.8935 12.9418C23.8935 10.0374 22.7397 7.25209 20.6861 5.19843C18.6324 3.14477 15.8471 1.99104 12.9428 1.99104Z" fill="white"/>
</svg>
